<?xml version="1.0" encoding="UTF-8" standalone="no"?>
<svg
   width="19.999996"
   height="26"
   viewBox="0 0 19.999996 26"
   fill="none"
   version="1.1"
   id="svg1"
   sodipodi:docname="certificado.svg"
   inkscape:version="1.3.2 (091e20e, 2023-11-25, custom)"
   xmlns:inkscape="http://www.inkscape.org/namespaces/inkscape"
   xmlns:sodipodi="http://sodipodi.sourceforge.net/DTD/sodipodi-0.dtd"
   xmlns="http://www.w3.org/2000/svg"
   xmlns:svg="http://www.w3.org/2000/svg">
  <defs
     id="defs1" />
  <sodipodi:namedview
     id="namedview1"
     pagecolor="#ffffff"
     bordercolor="#666666"
     borderopacity="1.0"
     inkscape:showpageshadow="2"
     inkscape:pageopacity="0.0"
     inkscape:pagecheckerboard="0"
     inkscape:deskcolor="#d1d1d1"
     inkscape:zoom="9.1813396"
     inkscape:cx="8.059826"
     inkscape:cy="20.095107"
     inkscape:window-width="1920"
     inkscape:window-height="1009"
     inkscape:window-x="-8"
     inkscape:window-y="-8"
     inkscape:window-maximized="1"
     inkscape:current-layer="svg1" />
  <path
     d="M 7.6620146,0.64806497 H 2.0508549 c -0.77434,0 -1.40278993,0.63850003 -1.40278993,1.42522313 V 23.926712 c 0,0.786724 0.62844993,1.425223 1.40278993,1.425223 H 17.949142 c 0.774339,0 1.40279,-0.638499 1.40279,-1.425223 V 12.524927 M 7.6620146,0.64806497 h 0.467597 c 2.9763454,0 5.8307434,1.20125423 7.9353974,3.33950723 2.104558,2.1382531 3.286923,5.0383354 3.286923,8.0622798 v 0.475075 M 7.6620146,0.64806497 c 1.116153,0 2.186576,0.45047503 2.9757854,1.25231523 0.78921,0.8018401 1.232585,1.8893805 1.232585,3.0233549 V 6.824032 c 0,0.7867236 0.62845,1.4252236 1.402791,1.4252236 h 1.870386 c 1.116152,0 2.186576,0.450465 2.975786,1.252296 0.789209,0.8018314 1.232584,1.8893714 1.232584,3.0233754 M 6.2592246,16.800596 9.0648046,19.651043 13.740771,13"
     stroke="#ff577f"
     stroke-width="1.29613"
     stroke-linecap="round"
     stroke-linejoin="round"
     id="path1"
     style="stroke:#ff4c29;stroke-opacity:1" />
</svg>
