<?xml version="1.0" encoding="UTF-8" standalone="no"?>
<!-- Created with Inkscape (http://www.inkscape.org/) -->

<svg
   version="1.1"
   id="svg1"
   width="30"
   height="30"
   viewBox="0 0 30 30"
   sodipodi:docname="computador.svg"
   inkscape:version="1.3.2 (091e20e, 2023-11-25, custom)"
   xmlns:inkscape="http://www.inkscape.org/namespaces/inkscape"
   xmlns:sodipodi="http://sodipodi.sourceforge.net/DTD/sodipodi-0.dtd"
   xmlns="http://www.w3.org/2000/svg"
   xmlns:svg="http://www.w3.org/2000/svg">
  <defs
     id="defs1" />
  <sodipodi:namedview
     id="namedview1"
     pagecolor="#ffffff"
     bordercolor="#666666"
     borderopacity="1.0"
     inkscape:showpageshadow="2"
     inkscape:pageopacity="0.0"
     inkscape:pagecheckerboard="0"
     inkscape:deskcolor="#d1d1d1"
     inkscape:zoom="1.4492188"
     inkscape:cx="-89.013477"
     inkscape:cy="34.846361"
     inkscape:window-width="1920"
     inkscape:window-height="1009"
     inkscape:window-x="-8"
     inkscape:window-y="-8"
     inkscape:window-maximized="1"
     inkscape:current-layer="g1" />
  <g
     inkscape:groupmode="layer"
     inkscape:label="Image"
     id="g1"
     transform="translate(-122.30054,-68.586317)">
    <path
       style="fill:#ff4c29;fill-opacity:1;stroke:none;stroke-width:0.0584415"
       d="m 136.29394,75.666341 h -9.34746 c -1.26815,0 -2.84462,-0.292595 -3.85348,0.653222 -1.02646,0.962309 -0.76183,2.522091 -0.76183,3.789827 v 9.119945 c 0,1.280649 -0.23904,2.776071 0.81876,3.730734 0.73445,0.662844 1.70034,0.653854 2.62812,0.653854 h 4.55689 v 1.98768 c -0.64427,0 -1.5021,-0.148426 -2.10318,0.109931 -0.98351,0.42273 -1.22799,1.791893 -0.40661,2.501561 0.50113,0.432971 1.13455,0.370028 1.7503,0.370028 h 3.33004 13.72908 3.5053 c 0.73152,0 1.4289,-0.01165 1.87125,-0.701534 0.31046,-0.484187 0.23193,-1.089442 0.23193,-1.636913 v -3.215365 -12.335309 -8.41841 c 0,-0.969263 0.29982,-2.472402 -0.4699,-3.20923 -0.75423,-0.721996 -2.30732,-0.415363 -3.26909,-0.415363 h -8.47113 c -1.01761,0 -2.63113,-0.32675 -3.37602,0.527053 -0.47779,0.547651 -0.36297,1.314103 -0.36297,1.986777 v 4.501512 m 3.91425,21.922942 c 0.0296,-0.234221 0.0785,-0.46487 0.0394,-0.701534 -0.24561,-1.485525 -1.84455,-1.286146 -2.96048,-1.286146 v -1.98768 h 4.38162 c 1.01581,0 2.00298,0.01412 2.79428,-0.7272 1.05386,-0.987294 0.76944,-2.527383 0.76944,-3.832772 v -9.003022 c 0,-1.41588 0.24067,-2.817961 -0.93474,-3.847612 -0.69356,-0.607553 -1.53703,-0.536976 -2.39529,-0.536976 h -4.61531 v -4.267667 c 0,-0.419759 -0.15478,-1.230589 0.14218,-1.565099 0.21294,-0.239865 0.56264,-0.188736 0.85099,-0.188736 h 2.1616 7.94534 1.92792 c 0.27449,1.8e-5 0.5907,-0.03866 0.79256,0.188736 0.28983,0.326476 0.14218,1.097804 0.14218,1.506638 v 4.033822 15.959902 4.501511 c 0,0.431694 0.1665,1.295889 -0.18861,1.611561 -0.22563,0.200576 -0.58462,0.142274 -0.86298,0.142274 h -1.98633 -8.00377 m -1.22685,-26.387148 c -1.05739,0.306315 -0.98941,2.534976 0,2.879394 0.71654,0.249432 1.75726,0.06482 2.51213,0.06482 h 5.37479 c 0.80433,0 2.06857,0.238011 2.80419,-0.11223 0.89791,-0.427505 0.8862,-2.607296 -0.17522,-2.846284 -0.71472,-0.160928 -1.60443,-0.02301 -2.33686,-0.02301 h -4.79058 c -1.02116,0 -2.40831,-0.246633 -3.38845,0.03731 m 10.28221,0.956534 v 0.99384 h -9.9901 v -0.99384 h 9.9901 m -1.40212,3.538616 c -1.90229,0.439304 -1.06702,3.343511 0.8179,2.862025 1.84867,-0.47223 1.02616,-3.287885 -0.8179,-2.862025 m -3.56372,14.408966 h -20.97337 v -9.295327 c 0,-1.018815 -0.34014,-2.778259 0.32321,-3.623691 0.40469,-0.515773 1.05321,-0.585281 1.66312,-0.585514 h 2.80424 11.74275 c 1.2057,0 3.37451,-0.434186 4.16845,0.701534 0.60291,0.862455 0.2716,2.619269 0.2716,3.624593 v 9.178405 m 3.97267,-13.457033 c 0.64077,0.02434 0.56881,1.015733 -0.0584,0.973632 -0.60971,-0.04093 -0.56033,-0.997134 0.0584,-0.973632 m -21.67443,1.055008 c -0.30099,0.120346 -0.5361,0.42781 -0.75948,0.651328 -0.45008,0.450352 -1.07537,0.911507 -1.40158,1.46153 -0.2176,0.366898 0.0461,0.931601 0.52525,0.772715 0.27784,-0.09213 0.50104,-0.397181 0.70106,-0.597332 0.48961,-0.489907 1.17281,-0.991472 1.54214,-1.578452 0.26598,-0.422732 -0.15379,-0.891151 -0.60739,-0.709789 m 2.9795,0.0099 c -0.54462,0.271379 -1.03237,0.972992 -1.46054,1.401445 l -3.15477,3.156904 c -0.20199,0.202148 -0.50081,0.423121 -0.59837,0.701534 -0.11645,0.332341 0.20306,0.673833 0.53995,0.617452 0.54866,-0.09182 1.08722,-0.88695 1.46054,-1.260525 l 2.57056,-2.572292 c 0.39892,-0.399191 0.94438,-0.804335 1.24191,-1.286146 0.26054,-0.421933 -0.0941,-1.010105 -0.59928,-0.758372 m 18.3444,1.957909 c -1.87281,0.40659 -1.21127,3.336559 0.64264,2.911422 1.89413,-0.434362 1.25353,-3.323081 -0.64264,-2.911422 m 0.17779,0.993796 c 0.6128,-0.186316 0.89622,0.747407 0.28868,0.924507 -0.58635,0.170924 -0.88023,-0.744654 -0.28868,-0.924507 m -3.79993,10.434282 c -0.0886,0.359861 -0.13841,0.69165 -0.39029,0.983691 -0.78649,0.911887 -2.67899,0.5363 -3.75765,0.5363 H 127.8228 c -1.41188,0 -4.40703,0.578551 -4.49846,-1.519991 h 20.97337 m -8.00377,2.513831 v 1.98768 h -4.96584 v -1.98768 h 4.96584 m 5.26115,1.053971 c -0.57181,0.306086 -0.40673,2.329178 0.45313,1.842159 0.49317,-0.279332 0.39414,-2.295702 -0.45313,-1.842159 m 2.04268,-0.01651 c -0.62114,0.238731 -0.51119,2.230696 0.34684,1.884199 0.53743,-0.217028 0.49322,-2.207066 -0.34684,-1.884199 m 1.98778,0 c -0.53457,0.210025 -0.50024,2.20877 0.34539,1.890922 0.61768,-0.23217 0.51876,-2.230435 -0.34539,-1.890922 m 1.98634,0 c -0.53654,0.210798 -0.49669,2.200273 0.34688,1.890922 0.62708,-0.229963 0.51773,-2.230615 -0.34688,-1.890922 m 1.98633,-1.75e-4 c -0.5446,0.218077 -0.4708,2.189493 0.34688,1.891103 0.62578,-0.22836 0.52622,-2.240721 -0.34688,-1.891103 m -20.85882,1.969586 c 0.76617,-0.213381 1.83293,-0.02535 2.6287,-0.02535 h 5.78375 c 0.53325,0 1.37049,-0.159041 1.86692,0.04339 0.30957,0.126239 0.38401,0.564523 0.14439,0.795361 -0.19082,0.183819 -0.48283,0.15499 -0.72604,0.155084 h -1.75265 -5.60848 c -0.67866,0 -1.76241,0.207776 -2.3942,-0.04339 -0.44767,-0.177971 -0.39739,-0.798377 0.0576,-0.925095 z"
       id="path1" />
  </g>
</svg>
