<?xml version="1.0" encoding="UTF-8" standalone="no"?>
<svg
   width="32.000046"
   height="32.000435"
   viewBox="0 0 32.000046 32.000435"
   fill="none"
   version="1.1"
   id="svg1"
   sodipodi:docname="github.svg"
   inkscape:version="1.3.2 (091e20e, 2023-11-25, custom)"
   xmlns:inkscape="http://www.inkscape.org/namespaces/inkscape"
   xmlns:sodipodi="http://sodipodi.sourceforge.net/DTD/sodipodi-0.dtd"
   xmlns="http://www.w3.org/2000/svg"
   xmlns:svg="http://www.w3.org/2000/svg">
  <sodipodi:namedview
     id="namedview1"
     pagecolor="#ffffff"
     bordercolor="#666666"
     borderopacity="1.0"
     inkscape:showpageshadow="2"
     inkscape:pageopacity="0.0"
     inkscape:pagecheckerboard="0"
     inkscape:deskcolor="#d1d1d1"
     inkscape:zoom="22.484848"
     inkscape:cx="13.030998"
     inkscape:cy="12.830863"
     inkscape:window-width="1920"
     inkscape:window-height="1009"
     inkscape:window-x="-8"
     inkscape:window-y="-8"
     inkscape:window-maximized="1"
     inkscape:current-layer="svg1" />
  <g
     clip-path="url(#clip0_12_358)"
     id="g1"
     transform="matrix(1.2972974,0,0,1.2357091,-4.5405409,-3.8351277)"
     style="stroke:#ff4c29;stroke-opacity:1">
    <path
       d="M 12.5,25.3333 C 6.76667,27.2 6.76667,22 4.5,21.3333 M 20.5,28 v -4.6667 c 0,-1.3333 0.1333,-1.8666 -0.6667,-2.6666 3.7334,-0.4 7.3334,-1.8667 7.3334,-8 C 27.165,11.0733 26.5434,9.54307 25.4333,8.4 25.954,7.01595 25.906,5.48217 25.3,4.13333 c 0,0 -1.4667,-0.4 -4.6667,1.73333 -2.7103,-0.70588 -5.5563,-0.70588 -8.2666,0 C 9.16667,3.73333 7.7,4.13333 7.7,4.13333 7.09397,5.48217 7.04604,7.01595 7.56667,8.4 6.4566,9.54307 5.83496,11.0733 5.83333,12.6667 c 0,6.1333 3.6,7.6 7.33337,8 -0.8,0.8 -0.8,1.6 -0.6667,2.6666 V 28"
       stroke="#ff577f"
       stroke-width="2"
       stroke-linecap="round"
       stroke-linejoin="round"
       id="path1"
       style="stroke:#ff4c29;stroke-opacity:1" />
  </g>
  <defs
     id="defs1">
    <clipPath
       id="clip0_12_358">
      <rect
         width="32"
         height="32"
         fill="#ffffff"
         transform="translate(0.5)"
         id="rect1"
         x="0"
         y="0" />
    </clipPath>
  </defs>
</svg>
