<?xml version="1.0" encoding="UTF-8" standalone="no"?>
<!-- Created with Inkscape (http://www.inkscape.org/) -->

<svg
   version="1.1"
   id="svg1"
   width="30.000004"
   height="30.000025"
   viewBox="0 0 30.000004 30.000025"
   sodipodi:docname="home.svg"
   inkscape:version="1.3.2 (091e20e, 2023-11-25, custom)"
   xmlns:inkscape="http://www.inkscape.org/namespaces/inkscape"
   xmlns:sodipodi="http://sodipodi.sourceforge.net/DTD/sodipodi-0.dtd"
   xmlns="http://www.w3.org/2000/svg"
   xmlns:svg="http://www.w3.org/2000/svg">
  <defs
     id="defs1" />
  <sodipodi:namedview
     id="namedview1"
     pagecolor="#ffffff"
     bordercolor="#666666"
     borderopacity="1.0"
     inkscape:showpageshadow="2"
     inkscape:pageopacity="0.0"
     inkscape:pagecheckerboard="0"
     inkscape:deskcolor="#d1d1d1"
     inkscape:zoom="1.4643148"
     inkscape:cx="49.169756"
     inkscape:cy="158.09442"
     inkscape:window-width="1920"
     inkscape:window-height="1009"
     inkscape:window-x="-8"
     inkscape:window-y="-8"
     inkscape:window-maximized="1"
     inkscape:current-layer="g1" />
  <g
     inkscape:groupmode="layer"
     inkscape:label="Image"
     id="g1"
     transform="translate(-204.15507,-95.009196)">
    <path
       style="fill:#ff4c29;fill-opacity:1;stroke:none;stroke-width:0.0604583"
       d="m 216.50634,115.90657 h 5.25874 v 6.49904 c 0,0.7253 -0.24799,1.87366 0.42898,2.37602 0.39935,0.29634 0.99315,0.20019 1.46661,0.20019 h 3.36315 2.62937 c 0.44463,0 0.92741,0.0311 1.2633,-0.30527 0.33053,-0.33102 0.2654,-0.79673 0.2654,-1.21704 v -2.63475 -7.08455 c 0,-1.15631 -0.1031,-2.36137 0.004,-3.51272 0.0406,-0.43759 0.50827,-0.35157 0.85249,-0.35157 0.82084,0 2.57698,-0.0344 2.00392,-1.34666 -0.35995,-0.82427 -1.47595,-1.49279 -2.12622,-2.10802 -1.77387,-1.6783 -3.61411,-3.29288 -5.38103,-4.97658 -1.74732,-1.665017 -3.57321,-3.253813 -5.31987,-4.918192 -0.56322,-0.536692 -1.34654,-1.656642 -2.26248,-1.502919 -0.50466,0.08469 -0.88041,0.530934 -1.22296,0.858913 -0.7245,0.693672 -1.47692,1.355616 -2.20133,2.04925 -2.68016,2.566278 -5.49789,5.002478 -8.19385,7.553178 -0.76955,0.72809 -1.55899,1.43397 -2.32363,2.16612 -0.32598,0.31213 -0.78489,0.64343 -0.84433,1.11245 -0.14938,1.17888 1.18779,1.11246 2.00615,1.11246 0.23565,0 0.70115,-0.0842 0.85437,0.13571 0.18041,0.25888 0.0628,0.85096 0.0628,1.15238 v 2.86895 7.72861 c 0,0.7469 -0.29939,2.25852 0.21757,2.8628 0.45512,0.532 1.41135,0.35745 2.04492,0.35745 h 5.13644 c 0.67503,0 1.49435,0.13609 1.89012,-0.527 0.36117,-0.60513 0.12777,-1.77694 0.12777,-2.45906 v -6.08919 m 16.51,-7.02601 c -0.7929,0 -2.11304,-0.25151 -2.63829,0.47075 -0.27779,0.38198 -0.23568,0.90289 -0.23568,1.3443 v 2.6933 10.59755 h -7.33778 v -6.03065 c 0,-0.68472 0.23289,-1.85468 -0.13625,-2.45905 -0.32256,-0.5281 -0.8759,-0.58551 -1.4536,-0.58555 h -3.97462 c -0.63173,0 -1.27481,-0.007 -1.63704,0.58555 -0.36914,0.60437 -0.13626,1.77433 -0.13626,2.45905 v 6.03065 h -7.33778 v -10.59755 -2.6933 c 0,-0.44141 0.0421,-0.96232 -0.23566,-1.3443 -0.52526,-0.72226 -1.84539,-0.47075 -2.63829,-0.47075 0.83923,-1.14077 2.18902,-2.08387 3.24084,-3.0469 2.39528,-2.19307 4.78247,-4.39926 7.15433,-6.614706 0.83588,-0.780746 1.6816,-1.550738 2.50708,-2.341142 0.22653,-0.2169 0.6236,-0.753651 0.97837,-0.753651 0.35477,0 0.75184,0.536751 0.97837,0.753651 0.82456,0.789526 1.66414,1.567917 2.50707,2.339695 2.35441,2.155653 4.67732,4.343123 7.03204,6.499043 1.09291,1.00065 2.49069,1.97809 3.36315,3.16401 z"
       id="path1" />
  </g>
</svg>
