<?xml version="1.0" encoding="UTF-8" standalone="no"?>
<svg
   width="32.00008"
   height="31.99996"
   viewBox="0 0 32.00008 31.99996"
   fill="none"
   version="1.1"
   id="svg5"
   sodipodi:docname="linkedin.svg"
   inkscape:version="1.3.2 (091e20e, 2023-11-25, custom)"
   xmlns:inkscape="http://www.inkscape.org/namespaces/inkscape"
   xmlns:sodipodi="http://sodipodi.sourceforge.net/DTD/sodipodi-0.dtd"
   xmlns="http://www.w3.org/2000/svg"
   xmlns:svg="http://www.w3.org/2000/svg">
  <sodipodi:namedview
     id="namedview5"
     pagecolor="#ffffff"
     bordercolor="#666666"
     borderopacity="1.0"
     inkscape:showpageshadow="2"
     inkscape:pageopacity="0.0"
     inkscape:pagecheckerboard="0"
     inkscape:deskcolor="#d1d1d1"
     inkscape:zoom="23.1875"
     inkscape:cx="11.644205"
     inkscape:cy="11.622642"
     inkscape:window-width="1920"
     inkscape:window-height="1009"
     inkscape:window-x="-8"
     inkscape:window-y="-8"
     inkscape:window-maximized="1"
     inkscape:current-layer="svg5" />
  <g
     clip-path="url(#clip0_12_364)"
     id="g5"
     transform="matrix(1.3714311,0,0,1.3714253,-5.9427538,-5.9428521)"
     style="stroke:#ff4c29;stroke-opacity:1">
    <path
       d="M 5.33325,8.00001 C 5.33325,7.29277 5.6142,6.61449 6.1143,6.11439 6.6144,5.61429 7.29267,5.33334 7.99992,5.33334 H 23.9999 c 0.7073,0 1.3855,0.28095 1.8856,0.78105 0.5001,0.5001 0.7811,1.17838 0.7811,1.88562 V 24 c 0,0.7073 -0.281,1.3855 -0.7811,1.8856 -0.5001,0.5001 -1.1783,0.7811 -1.8856,0.7811 H 7.99992 C 7.29267,26.6667 6.6144,26.3857 6.1143,25.8856 5.6142,25.3855 5.33325,24.7073 5.33325,24 Z"
       stroke="#ff577f"
       stroke-width="2"
       stroke-linecap="round"
       stroke-linejoin="round"
       id="path1"
       style="stroke:#ff4c29;stroke-opacity:1" />
    <path
       d="m 10.6667,14.6667 v 6.6666"
       stroke="#ff577f"
       stroke-width="2"
       stroke-linecap="round"
       stroke-linejoin="round"
       id="path2"
       style="stroke:#ff4c29;stroke-opacity:1" />
    <path
       d="M 10.6667,10.6667 V 10.68"
       stroke="#ff577f"
       stroke-width="2"
       stroke-linecap="round"
       stroke-linejoin="round"
       id="path3"
       style="stroke:#ff4c29;stroke-opacity:1" />
    <path
       d="M 16,21.3333 V 14.6667"
       stroke="#ff577f"
       stroke-width="2"
       stroke-linecap="round"
       stroke-linejoin="round"
       id="path4"
       style="stroke:#ff4c29;stroke-opacity:1" />
    <path
       d="m 21.3333,21.3333 v -4 c 0,-0.7072 -0.2809,-1.3855 -0.781,-1.8856 -0.5001,-0.5001 -1.1784,-0.781 -1.8856,-0.781 -0.7073,0 -1.3856,0.2809 -1.8857,0.781 C 16.281,15.9478 16,16.6261 16,17.3333"
       stroke="#ff577f"
       stroke-width="2"
       stroke-linecap="round"
       stroke-linejoin="round"
       id="path5"
       style="stroke:#ff4c29;stroke-opacity:1" />
  </g>
  <defs
     id="defs5">
    <clipPath
       id="clip0_12_364">
      <rect
         width="32"
         height="32"
         fill="#ffffff"
         id="rect5"
         x="0"
         y="0" />
    </clipPath>
  </defs>
</svg>
