<?xml version="1.0" encoding="UTF-8" standalone="no"?>
<!-- Created with Inkscape (http://www.inkscape.org/) -->

<svg
   version="1.1"
   id="svg1"
   width="29.999998"
   height="29.999998"
   viewBox="0 0 29.999998 29.999998"
   sodipodi:docname="projeto.svg"
   inkscape:version="1.3.2 (091e20e, 2023-11-25, custom)"
   xmlns:inkscape="http://www.inkscape.org/namespaces/inkscape"
   xmlns:sodipodi="http://sodipodi.sourceforge.net/DTD/sodipodi-0.dtd"
   xmlns="http://www.w3.org/2000/svg"
   xmlns:svg="http://www.w3.org/2000/svg">
  <defs
     id="defs1" />
  <sodipodi:namedview
     id="namedview1"
     pagecolor="#ffffff"
     bordercolor="#666666"
     borderopacity="1.0"
     inkscape:showpageshadow="2"
     inkscape:pageopacity="0.0"
     inkscape:pagecheckerboard="0"
     inkscape:deskcolor="#d1d1d1"
     showgrid="false"
     inkscape:zoom="25.96875"
     inkscape:cx="10.397112"
     inkscape:cy="13.535499"
     inkscape:window-width="1920"
     inkscape:window-height="1009"
     inkscape:window-x="-8"
     inkscape:window-y="-8"
     inkscape:window-maximized="1"
     inkscape:current-layer="g1" />
  <g
     inkscape:groupmode="layer"
     inkscape:label="Image"
     id="g1"
     transform="translate(-2.4248708,-0.6161251)">
    <path
       style="fill:#ff4c29;fill-opacity:1;stroke:none;stroke-width:0.0585683"
       d="M 8.0845319,0.85045405 9.0799642,4.8340458 10.016841,4.5997169 9.0214094,0.6161251 8.0845319,0.85045405 m 0,10.83771295 C 7.2811443,11.761105 7.1765818,13.016163 7.1476545,13.679963 6.6037076,13.473637 6.048006,12.708144 5.4495647,12.709107 c -0.2338909,3.51e-4 -0.4263179,0.178877 -0.5855483,0.328982 -0.3837578,0.361768 -1.4920976,1.154478 -1.3782518,1.754936 0.1077025,0.568057 0.7218604,1.060394 0.9683681,1.581719 -0.4732701,0.03768 -1.5201963,0.111726 -1.8483627,0.482039 -0.2366857,0.267083 -0.1425014,0.769678 -0.1425014,1.099683 0,0.39755 -0.1220463,1.044826 0.069036,1.403397 0.2464303,0.462432 1.4444796,0.567577 1.9218273,0.588399 -0.2252014,0.535629 -0.9148079,1.0549 -0.9693623,1.640302 -0.024165,0.259301 0.1625511,0.468959 0.3277894,0.644406 0.3622787,0.38466 1.1534984,1.493474 1.7541146,1.370761 0.5779665,-0.118088 1.0384996,-0.73239 1.5809802,-0.960687 0.020812,0.477571 0.1259092,1.676183 0.5881241,1.922727 0.3584019,0.191172 1.0053763,0.06907 1.4027404,0.06907 0.3298493,0 0.8322096,0.09422 1.0991677,-0.14257 0.370137,-0.328321 0.444148,-1.375734 0.481811,-1.849227 0.488458,0.231183 1.247376,1.104855 1.815201,0.955306 0.395873,-0.104262 0.717879,-0.560458 0.995434,-0.838141 0,0.727758 -0.104738,1.544869 0.206025,2.226125 0.17337,0.380069 0.716602,0.662523 0.78073,1.056786 0.195625,1.202682 -0.371017,2.674931 0.397324,3.746956 0.680288,0.949169 1.86395,0.820153 2.890422,0.820153 0.489901,0 0.998955,0.02209 1.463869,-0.161736 0.360064,-0.142359 0.667073,-0.402668 0.890655,-0.716998 0.73075,-1.027344 0.158579,-2.531193 0.34767,-3.68833 0.04463,-0.273172 0.330769,-0.396158 0.499073,-0.590524 0.214098,-0.247253 0.358222,-0.560088 0.435004,-0.876383 0.239548,-0.986805 -0.145831,-2.065065 0.156553,-3.046276 0.319712,-1.037439 1.363288,-1.610504 2.179767,-2.226125 -0.08381,-0.246641 -0.345145,-0.679963 -0.644103,-0.693178 -0.224516,-0.0099 -0.475308,0.277038 -0.644104,0.399634 -0.635841,0.461806 -1.201506,0.878311 -1.588885,1.582353 -0.444244,0.807391 -0.401979,1.744742 -0.401979,2.6362 0,0.400222 0.08514,0.917865 -0.09207,1.28881 -0.183716,0.384544 -0.557104,0.574173 -0.961907,0.627451 -0.96509,0.127027 -2.012806,0.01695 -2.986296,0.01695 -0.444517,0 -1.007217,0.06453 -1.40509,-0.176289 -0.595346,-0.36034 -0.52722,-1.039581 -0.52722,-1.639759 0,-1.033431 0.07872,-2.078847 -0.509372,-2.987695 C 13.526511,19.601572 12.735672,19.209426 12.066265,18.643361 11.103037,17.828836 10.248502,16.78148 9.7490978,15.613176 7.420828,10.166438 11.350621,3.7710326 17.39475,3.7209835 c 0.03349,0.6444386 0.649324,1.202214 1.017117,1.6988847 0.166456,0.224784 0.419188,0.5198011 0.260382,0.8140031 -0.394626,0.731076 -1.93551,-0.1267667 -2.56548,0.032411 -0.344561,0.087061 -0.41708,0.4307618 -0.460983,0.7353062 -0.117324,0.8138741 -0.491391,1.942383 -0.345591,2.7531396 0.11645,0.6475709 1.525603,0.5808369 2.036,0.6607219 0.294957,0.04616 0.657506,0.152974 0.682913,0.511193 0.0663,0.934711 -2.200609,1.146036 -1.871179,2.167498 0.247857,0.76853 1.116366,1.586851 1.605784,2.22608 0.186342,0.24338 0.410115,0.517913 0.753578,0.443253 0.537166,-0.116763 1.084582,-0.733147 1.522425,-1.050051 0.240636,-0.174167 0.536721,-0.367234 0.806393,-0.129278 0.712915,0.629067 -0.625868,2.220124 0.139158,2.802454 0.241298,0.183674 0.639202,0.178735 0.928204,0.218373 0.625077,0.08573 1.248599,0.182866 1.873754,0.268004 0.292444,0.03983 0.68214,0.08438 0.851574,-0.215795 0.311694,-0.552207 -0.04163,-2.34567 0.788005,-2.480885 0.285003,-0.04645 0.486634,0.241285 0.636424,0.436927 0.325754,0.425464 0.879826,1.600201 1.53006,1.439105 0.765151,-0.189568 1.657914,-1.161234 2.283594,-1.636822 0.248634,-0.188991 0.502378,-0.393274 0.407984,-0.739645 -0.14284,-0.52414 -0.697066,-1.033173 -1.01513,-1.464555 -0.156869,-0.21276 -0.389628,-0.487547 -0.225318,-0.758993 0.549581,-0.907931 2.192839,0.504233 2.851837,-0.202868 0.190696,-0.204616 0.176846,-0.591793 0.21339,-0.854189 0.09252,-0.664276 0.194171,-1.327304 0.285139,-1.9917965 C 32.425684,9.1047329 32.502796,8.780694 32.202748,8.588552 31.728937,8.2851361 30.881466,8.3564347 30.335365,8.2543715 30.061935,8.2032697 29.726792,8.090315 29.691081,7.7631128 29.590244,6.8391713 31.788209,6.6258558 31.580062,5.6541971 31.413517,4.8767311 30.397622,3.9365745 29.917846,3.3109525 29.722825,3.0566486 29.512225,2.8373908 29.164269,2.9260543 28.644089,3.0586026 28.131446,3.6369842 27.700397,3.9462268 27.457694,4.1203466 27.169255,4.3229977 26.888447,4.1007292 26.131116,3.5012822 27.653841,1.5185717 26.529077,1.1857197 25.757828,0.95748352 24.866033,0.94365678 24.069999,0.82577362 23.769443,0.78126486 23.395383,0.66881657 23.158468,0.9253534 c -0.363211,0.39329 -0.304766,1.4054552 -0.384582,1.9168966 -0.04392,0.2814782 -0.175631,0.6511266 -0.519311,0.6597276 -0.91639,0.022932 -1.053907,-1.8719354 -1.990684,-1.8841692 -0.73716,-0.00963 -1.18125,0.9916502 -1.87371,1.1480959 -0.331531,0.074903 -0.665358,-0.045533 -0.995431,-0.028568 -0.931049,0.047854 -1.858023,0.154826 -2.752078,0.4415371 C 11.055534,4.3292197 8.1165067,7.8242067 8.0845319,11.688167 M 25.885198,2.080681 c -0.04934,1.1496209 -0.596187,2.7150436 0.995433,3.1022821 0.244442,0.059472 0.465177,0.037241 0.702657,-0.04136 0.648574,-0.2146633 1.069411,-0.8271862 1.698091,-1.0691258 l 1.112541,1.6403026 c -0.930493,0.6687131 -2.446173,1.7359313 -1.327514,2.9822249 0.140351,0.1563636 0.319105,0.2766118 0.507746,0.3672685 0.538689,0.2588842 1.233255,0.2327149 1.8152,0.3411869 l -0.292775,1.9917968 c -0.546502,-0.101868 -1.263233,-0.304764 -1.815198,-0.215209 -0.854319,0.138606 -1.497279,0.997274 -1.242665,1.85551 0.132068,0.445168 0.465042,0.806926 0.737537,1.171644 0.10115,0.13538 0.307011,0.334325 0.251525,0.521953 -0.1278,0.432149 -1.096109,0.90033 -1.444488,1.176932 h -0.05855 c -0.73621,-0.851171 -1.609822,-2.450247 -2.927516,-1.433366 -0.174881,0.134956 -0.324876,0.301627 -0.430667,0.496051 -0.211277,0.388284 -0.226763,0.859695 -0.288076,1.288809 -0.02126,0.148858 -0.0067,0.423859 -0.136582,0.525568 -0.329328,0.257779 -1.490306,-0.141965 -1.896978,-0.174075 0.0016,-0.600729 0.236299,-1.219159 0.164865,-1.816049 -0.107562,-0.898797 -1.0512,-1.569107 -1.921509,-1.247178 -0.618911,0.228935 -1.055756,0.780561 -1.639536,1.071432 -0.238423,-0.33207 -1.121613,-1.163907 -1.059452,-1.579414 0.07478,-0.499827 1.157458,-0.893747 1.433461,-1.349924 1.043375,-1.7244805 -1.279673,-2.3067126 -2.481982,-2.4016457 l 0.23422,-1.9917959 c 0.550126,0.023635 1.088659,0.1975164 1.639535,0.207616 1.076466,0.019736 1.869179,-1.1822641 1.352542,-2.1408294 -0.206681,-0.3834769 -0.873059,-0.9076725 -0.894,-1.3421031 -0.01225,-0.2528165 0.423173,-0.4692603 0.595444,-0.5985246 0.197669,-0.1483221 0.659198,-0.6412009 0.926711,-0.5590163 0.376747,0.1157438 0.688163,0.8680999 0.957209,1.1469643 0.790174,0.8190089 2.069023,0.5444995 2.480267,-0.5219518 0.207562,-0.5382582 0.146958,-1.1507937 0.320199,-1.6988847 l 1.932308,0.2929111 M 3.8100333,4.0724768 v 0.058583 L 6.0351129,5.7466811 7.323319,6.5915126 7.8503125,5.7713616 5.3910098,4.0385751 4.401045,3.4300156 3.8100295,4.0724768 M 23.36734,5.3863739 c -0.606229,0.086887 -1.182678,0.2764617 -1.69809,0.6114075 -2.154316,1.4000108 -2.370829,4.6199046 -0.468393,6.3246196 0.902804,0.808975 2.158702,1.112672 3.337581,0.930128 0.540935,-0.08376 1.069379,-0.293585 1.522425,-0.598931 3.344225,-2.25397 1.403901,-7.8544838 -2.693523,-7.2672241 m -9.60299,0.9122278 c -0.967448,0.7439806 -1.792023,1.4869227 -2.382676,2.577618 -1.4038684,2.5923673 -0.964397,5.9302893 1.041156,8.0843483 0.550991,0.591789 1.212573,1.070686 1.927068,1.445798 0.660156,0.346581 1.331267,0.563528 1.848,1.137064 0.561355,0.623056 0.698727,1.313114 0.845522,2.103717 h 0.936878 c 0,-1.414051 -0.663869,-2.733346 -1.873754,-3.509646 -0.742689,-0.476534 -1.57932,-0.719486 -2.283639,-1.274706 -1.47255,-1.160819 -2.363481,-3.063451 -2.281334,-4.9403 0.05681,-1.297976 0.596318,-2.5851476 1.428719,-3.5735155 C 13.283057,7.9776098 14.038832,7.5868991 14.223345,7.159752 14.333033,6.9058144 13.932421,6.4615174 13.76435,6.2986017 m 9.661546,0.075533 c 3.127005,-0.4075511 4.695968,3.8366493 1.990864,5.5121083 -0.378158,0.23422 -0.788642,0.37204 -1.229652,0.429376 C 21.0751,12.72021 19.69228,8.4678979 22.2548,6.8082123 22.608944,6.5788406 23.006774,6.4287616 23.425896,6.3741357 M 7.1476545,9.227713 6.9719901,8.2318151 C 6.1859056,8.3377183 5.3993316,8.6032868 4.6297971,8.7957605 4.1687211,8.9110831 3.6045272,8.9669266 3.1748274,9.1701713 2.9185791,9.2913744 3.0457884,9.9659658 3.2575086,10.099531 3.4761377,10.237455 4.0456794,9.9815105 4.2784677,9.9232861 5.2200076,9.6877917 6.1860187,9.3572689 7.147654,9.227713 m 1.0539873,4.335086 0.351329,1.640302 c -0.5566132,0.144444 -1.0627765,0.310385 -1.5124856,0.688297 -2.7215995,2.287088 0.3787764,6.682368 3.3862403,4.814592 0.476705,-0.296056 0.821687,-0.694573 1.112541,-1.167804 0.526375,0.262265 1.95903,1.149784 1.819177,1.874631 -0.04512,0.233859 -0.313304,0.426892 -0.472415,0.585823 -0.133927,0.133774 -0.284418,0.334317 -0.468439,0.399995 -0.376807,0.134486 -0.99478,-0.583843 -1.346762,-0.712432 -1.1533908,-0.421374 -1.4232576,1.184466 -1.5224245,1.952738 H 8.3187514 C 8.2152347,22.869848 8.0120781,21.441311 6.9134353,21.655599 6.1237777,21.809621 5.7934443,22.811004 5.039726,22.057178 4.2803934,21.297735 5.3045736,20.944256 5.4432396,20.129252 5.6237459,19.068332 4.2003261,18.876531 3.4587006,18.776617 V 17.54639 c 0.7253678,-0.09372 2.053787,-0.258464 1.9964215,-1.255088 -0.031493,-0.547152 -0.8538798,-1.065786 -0.7736826,-1.55686 0.041234,-0.252488 0.4047783,-0.540658 0.5924607,-0.693403 0.4979736,-0.405274 1.1712346,0.565445 1.6980899,0.648246 0.7824107,0.122962 0.9290244,-0.634182 1.2296517,-1.126486 m 0.2927741,2.655456 c 0.6765495,-0.116512 0.9162103,0.808014 1.2313231,1.269552 0.262411,0.384349 0.914043,0.895466 1.004693,1.347393 0.12363,0.61634 -0.9349711,1.189327 -1.4162486,1.269733 -2.497106,0.417184 -3.330436,-3.454307 -0.8197675,-3.886678 M 26.99774,19.186692 v 0.937316 h 3.454735 V 19.186692 H 26.99774 m -0.23422,2.577619 -0.585547,0.820151 c 0.726316,0.547642 1.40929,1.160495 2.107973,1.743002 0.1939,0.16166 0.550119,0.591678 0.81891,0.588399 0.328409,-0.004 0.688398,-0.591525 0.458045,-0.850076 -0.730135,-0.819505 -1.870132,-1.720062 -2.799381,-2.301476 m -9.7201,0.878733 V 24.1076 h 0.995432 V 22.643044 H 17.04342 m 6.968024,0.52724 v 3.456352 h 0.936877 v -3.456352 h -0.936877 m -4.50872,2.929113 v 1.054479 h -3.981729 v -1.054479 h 3.981729 m 0,1.991795 c 0,0.443407 0.04535,0.925856 -0.312067,1.257619 -0.384029,0.356467 -0.964253,0.265519 -1.444579,0.265519 -0.739185,0 -1.890188,0.215373 -2.178005,-0.702986 -0.0808,-0.257814 -0.04707,-0.553367 -0.04707,-0.820152 z"
       id="path1" />
  </g>
</svg>
